<svg width="32" height="32" viewBox="0 0 32 32" fill="none" xmlns="http://www.w3.org/2000/svg">
<path d="M7.99902 29.3302V5.33276C7.99902 4.62559 8.27994 3.94739 8.77999 3.44735C9.28003 2.9473 9.95823 2.66638 10.6654 2.66638H21.3309C22.0381 2.66638 22.7163 2.9473 23.2163 3.44735C23.7164 3.94739 23.9973 4.62559 23.9973 5.33276V29.3302H7.99902Z" stroke="#4A6B8A" stroke-width="2.66638" stroke-linecap="round" stroke-linejoin="round"/>
<path d="M7.99926 15.9983H5.33288C4.62571 15.9983 3.94751 16.2792 3.44747 16.7793C2.94742 17.2793 2.6665 17.9575 2.6665 18.6647V26.6638C2.6665 27.371 2.94742 28.0492 3.44747 28.5492C3.94751 29.0493 4.62571 29.3302 5.33288 29.3302H7.99926" stroke="#4A6B8A" stroke-width="2.66638" stroke-linecap="round" stroke-linejoin="round"/>
<path d="M23.9976 11.9987H26.6639C27.3711 11.9987 28.0493 12.2796 28.5493 12.7797C29.0494 13.2797 29.3303 13.9579 29.3303 14.6651V26.6638C29.3303 27.371 29.0494 28.0492 28.5493 28.5492C28.0493 29.0493 27.3711 29.3302 26.6639 29.3302H23.9976" stroke="#4A6B8A" stroke-width="2.66638" stroke-linecap="round" stroke-linejoin="round"/>
<path d="M13.332 7.99915H18.6648" stroke="#4A6B8A" stroke-width="2.66638" stroke-linecap="round" stroke-linejoin="round"/>
<path d="M13.332 13.3319H18.6648" stroke="#4A6B8A" stroke-width="2.66638" stroke-linecap="round" stroke-linejoin="round"/>
<path d="M13.332 18.6647H18.6648" stroke="#4A6B8A" stroke-width="2.66638" stroke-linecap="round" stroke-linejoin="round"/>
<path d="M13.332 23.9974H18.6648" stroke="#4A6B8A" stroke-width="2.66638" stroke-linecap="round" stroke-linejoin="round"/>
</svg>
