<svg width="32" height="32" viewBox="0 0 32 32" fill="none" xmlns="http://www.w3.org/2000/svg">
<path d="M19.9977 27.997V17.3315C19.9977 16.9779 19.8572 16.6388 19.6072 16.3888C19.3572 16.1388 19.0181 15.9983 18.6645 15.9983H13.3317C12.9781 15.9983 12.639 16.1388 12.389 16.3888C12.139 16.6388 11.9985 16.9779 11.9985 17.3315V27.997" stroke="#4A6B8A" stroke-width="2.66638" stroke-linecap="round" stroke-linejoin="round"/>
<path d="M3.99951 13.3319C3.99942 12.944 4.08395 12.5608 4.2472 12.2089C4.41046 11.8571 4.6485 11.5451 4.94474 11.2948L14.2771 3.29696C14.7583 2.89021 15.3681 2.66705 15.9982 2.66705C16.6283 2.66705 17.2381 2.89021 17.7194 3.29696L27.0517 11.2948C27.3479 11.5451 27.586 11.8571 27.7492 12.2089C27.9125 12.5608 27.997 12.944 27.9969 13.3319V25.3306C27.9969 26.0377 27.716 26.7159 27.2159 27.216C26.7159 27.716 26.0377 27.9969 25.3305 27.9969H6.66589C5.95872 27.9969 5.28052 27.716 4.78048 27.216C4.28043 26.7159 3.99951 26.0377 3.99951 25.3306V13.3319Z" stroke="#4A6B8A" stroke-width="2.66638" stroke-linecap="round" stroke-linejoin="round"/>
</svg>
