<svg width="19" height="18" viewBox="0 0 19 18" fill="none" xmlns="http://www.w3.org/2000/svg">
<path d="M8.7725 1.079C8.80902 1.00521 8.86543 0.943107 8.93537 0.899684C9.00532 0.856262 9.086 0.833252 9.16833 0.833252C9.25066 0.833252 9.33134 0.856262 9.40129 0.899684C9.47123 0.943107 9.52764 1.00521 9.56416 1.079L11.4892 4.97816C11.616 5.2348 11.8032 5.45684 12.0347 5.62521C12.2662 5.79358 12.5351 5.90326 12.8183 5.94483L17.1233 6.57483C17.2049 6.58665 17.2815 6.62106 17.3446 6.67416C17.4076 6.72727 17.4545 6.79695 17.48 6.87534C17.5055 6.95372 17.5086 7.03767 17.4888 7.11769C17.4691 7.19772 17.4273 7.27062 17.3683 7.32816L14.255 10.3598C14.0497 10.5599 13.8961 10.8069 13.8074 11.0795C13.7187 11.3521 13.6975 11.6422 13.7458 11.9248L14.4808 16.2082C14.4952 16.2897 14.4864 16.3736 14.4554 16.4504C14.4244 16.5272 14.3724 16.5937 14.3054 16.6423C14.2385 16.691 14.1591 16.7198 14.0766 16.7256C13.994 16.7313 13.9114 16.7137 13.8383 16.6748L9.99 14.6515C9.73643 14.5184 9.45431 14.4488 9.16791 14.4488C8.88151 14.4488 8.5994 14.5184 8.34583 14.6515L4.49833 16.6748C4.42527 16.7135 4.34283 16.7309 4.26037 16.725C4.17792 16.7192 4.09876 16.6903 4.03191 16.6417C3.96506 16.5931 3.91319 16.5267 3.88221 16.45C3.85123 16.3734 3.84238 16.2896 3.85666 16.2082L4.59083 11.9257C4.63933 11.6429 4.61832 11.3527 4.52961 11.0799C4.44091 10.8071 4.28717 10.56 4.08166 10.3598L0.968329 7.329C0.908824 7.27152 0.866657 7.19849 0.846631 7.11823C0.826606 7.03796 0.829527 6.95368 0.855061 6.87499C0.880596 6.7963 0.927718 6.72636 0.99106 6.67315C1.0544 6.61993 1.13142 6.58558 1.21333 6.574L5.5175 5.94483C5.80104 5.90358 6.07032 5.79404 6.30215 5.62565C6.53398 5.45726 6.72142 5.23506 6.84833 4.97816L8.7725 1.079Z" fill="#FDC700" stroke="#FDC700" stroke-width="1.66667" stroke-linecap="round" stroke-linejoin="round"/>
</svg>
