<svg width="64" height="64" viewBox="0 0 64 64" fill="none" xmlns="http://www.w3.org/2000/svg">
<path d="M0 31.9965C0 14.3253 14.3253 0 31.9965 0C49.6677 0 63.9931 14.3253 63.9931 31.9965C63.9931 49.6677 49.6677 63.9931 31.9965 63.9931C14.3253 63.9931 0 49.6677 0 31.9965Z" fill="#B9976A"/>
<path d="M37.3326 43.9952V41.3288C37.3326 39.9145 36.7708 38.5581 35.7707 37.558C34.7706 36.5579 33.4142 35.9961 31.9998 35.9961H24.0007C22.5864 35.9961 21.23 36.5579 20.2299 37.558C19.2298 38.5581 18.668 39.9145 18.668 41.3288V43.9952" stroke="#24384E" stroke-width="2.66637" stroke-linecap="round" stroke-linejoin="round"/>
<path d="M27.9968 30.6633C30.942 30.6633 33.3296 28.2758 33.3296 25.3306C33.3296 22.3854 30.942 19.9978 27.9968 19.9978C25.0516 19.9978 22.6641 22.3854 22.6641 25.3306C22.6641 28.2758 25.0516 30.6633 27.9968 30.6633Z" stroke="#24384E" stroke-width="2.66637" stroke-linecap="round" stroke-linejoin="round"/>
<path d="M45.3316 43.9952V41.3289C45.3307 40.1473 44.9374 38.9995 44.2135 38.0656C43.4896 37.1318 42.4761 36.4648 41.332 36.1694" stroke="#24384E" stroke-width="2.66637" stroke-linecap="round" stroke-linejoin="round"/>
<path d="M37.332 20.1712C38.4791 20.4649 39.4958 21.132 40.2219 22.0674C40.948 23.0028 41.3421 24.1532 41.3421 25.3373C41.3421 26.5214 40.948 27.6718 40.2219 28.6072C39.4958 29.5425 38.4791 30.2097 37.332 30.5034" stroke="#24384E" stroke-width="2.66637" stroke-linecap="round" stroke-linejoin="round"/>
</svg>
