<svg width="64" height="64" viewBox="0 0 64 64" fill="none" xmlns="http://www.w3.org/2000/svg">
<path d="M0 31.9965C0 14.3253 14.3253 0 31.9965 0C49.6677 0 63.9931 14.3253 63.9931 31.9965C63.9931 49.6677 49.6677 63.9931 31.9965 63.9931C14.3253 63.9931 0 49.6677 0 31.9965Z" fill="#52677A"/>
<path d="M29.2474 36.6627C29.1284 36.2013 28.8879 35.7803 28.551 35.4433C28.2141 35.1064 27.793 34.8659 27.3317 34.7469L19.1525 32.6378C19.013 32.5982 18.8902 32.5142 18.8027 32.3984C18.7153 32.2827 18.668 32.1416 18.668 31.9965C18.668 31.8515 18.7153 31.7104 18.8027 31.5947C18.8902 31.4789 19.013 31.3949 19.1525 31.3553L27.3317 29.2448C27.7929 29.1259 28.2138 28.8856 28.5507 28.549C28.8876 28.2123 29.1282 27.7915 29.2474 27.3304L31.3565 19.1513C31.3958 19.0112 31.4797 18.8878 31.5956 18.7998C31.7115 18.7119 31.853 18.6643 31.9985 18.6643C32.144 18.6643 32.2854 18.7119 32.4013 18.7998C32.5172 18.8878 32.6012 19.0112 32.6404 19.1513L34.7482 27.3304C34.8672 27.7918 35.1077 28.2128 35.4446 28.5497C35.7815 28.8867 36.2026 29.1272 36.664 29.2462L44.8431 31.3539C44.9837 31.3927 45.1078 31.4766 45.1962 31.5927C45.2845 31.7088 45.3324 31.8506 45.3324 31.9965C45.3324 32.1424 45.2845 32.2843 45.1962 32.4004C45.1078 32.5165 44.9837 32.6003 44.8431 32.6391L36.664 34.7469C36.2026 34.8659 35.7815 35.1064 35.4446 35.4433C35.1077 35.7803 34.8672 36.2013 34.7482 36.6627L32.6391 44.8418C32.5999 44.9819 32.5159 45.1053 32.4 45.1932C32.2841 45.2812 32.1426 45.3288 31.9971 45.3288C31.8517 45.3288 31.7102 45.2812 31.5943 45.1932C31.4784 45.1053 31.3944 44.9819 31.3552 44.8418L29.2474 36.6627Z" stroke="#F4EBDD" stroke-width="2.66637" stroke-linecap="round" stroke-linejoin="round"/>
<path d="M42.6641 19.9978V25.3306" stroke="#F4EBDD" stroke-width="2.66637" stroke-linecap="round" stroke-linejoin="round"/>
<path d="M45.3288 22.6642H39.9961" stroke="#F4EBDD" stroke-width="2.66637" stroke-linecap="round" stroke-linejoin="round"/>
<path d="M21.332 38.6625V41.3289" stroke="#F4EBDD" stroke-width="2.66637" stroke-linecap="round" stroke-linejoin="round"/>
<path d="M22.6664 39.9957H20" stroke="#F4EBDD" stroke-width="2.66637" stroke-linecap="round" stroke-linejoin="round"/>
</svg>
